<svg width="60" height="59" viewBox="0 0 60 59" fill="none" xmlns="http://www.w3.org/2000/svg">
<path d="M59.3413 29.6587C59.3413 43.6414 49.5604 55.3396 36.4671 58.2849C36.4671 58.2849 35.9309 57.0339 35.2695 57.0339C34.608 57.0339 34.0719 58.7196 34.0719 58.7196C32.8055 58.8954 31.5132 58.9904 30.2005 58.9993C28.8878 59.0081 29.6643 57.0339 29.0029 57.0339C28.3414 57.0339 27.8053 58.9192 27.8053 58.9192C26.1699 58.7986 24.5475 58.541 22.9552 58.1489C22.5218 58.042 22.2519 57.4642 21.8264 57.3383C21.4544 57.2284 20.9258 57.5726 20.5601 57.4484C8.98648 53.5182 0.658691 42.5609 0.658691 29.6587C0.658691 13.4539 13.7952 0.317352 30 0.317352C34.3593 0.317352 38.4965 1.26801 42.2157 2.97328C43.4334 3.5316 44.4926 4.30466 45.6138 5.01795C46.5622 5.6213 47.5873 6.14382 48.4576 6.84885C55.0971 12.2281 59.3413 20.4478 59.3413 29.6587Z" fill="#012D4E"/>
</svg>
