<svg width="28" height="53" viewBox="0 0 28 53" fill="none" xmlns="http://www.w3.org/2000/svg">
<path d="M3.99474 14.3713C3.99474 14.6824 3.93546 14.9795 3.82756 15.2522C3.54709 15.363 3.24817 15.4198 2.9466 15.4194C1.62373 15.4194 0.551392 14.3471 0.551392 13.0242C0.551392 12.7131 0.610673 12.4159 0.718577 12.1432C0.999047 12.0324 1.29796 11.9757 1.59954 11.976C2.92241 11.976 3.99474 13.0484 3.99474 14.3713ZM1.59954 5.98802C1.46061 5.98802 1.32552 6.00383 1.1957 6.03365C1.16532 6.16611 1.15001 6.30158 1.15008 6.43748C1.15008 7.42958 1.95439 8.23389 2.94648 8.23389C3.0854 8.23389 3.22049 8.21808 3.35031 8.18826C3.3807 8.0558 3.39601 7.92033 3.39594 7.78443C3.39594 6.79234 2.59163 5.98802 1.59954 5.98802ZM2.94648 2.24587C3.0854 2.24587 3.22049 2.23006 3.35031 2.20024C3.3807 2.06778 3.39601 1.93231 3.39594 1.79641C3.39594 0.804311 2.59163 0 1.59954 0C1.46061 0 1.32552 0.0158084 1.1957 0.0456287C1.16532 0.178089 1.15001 0.313561 1.15008 0.449461C1.15008 1.44156 1.95439 2.24587 2.94648 2.24587ZM27.5074 38.3234C27.5074 38.0122 27.4482 37.7151 27.3403 37.4424C27.0598 37.3316 26.7609 37.2748 26.4593 37.2752C25.1364 37.2752 24.0641 38.3475 24.0641 39.6704C24.0641 39.9816 24.1234 40.2787 24.2313 40.5514C24.5117 40.6622 24.8107 40.7189 25.1122 40.7186C26.4351 40.7186 27.5074 39.6462 27.5074 38.3234ZM26.9086 44.9102C26.9086 44.7713 26.8928 44.6362 26.863 44.5063C26.7305 44.476 26.5951 44.4607 26.4592 44.4607C25.4671 44.4607 24.6628 45.265 24.6628 46.2571C24.6628 46.396 24.6786 46.5311 24.7084 46.661C24.8409 46.6913 24.9763 46.7066 25.1122 46.7066C26.1043 46.7066 26.9086 45.9023 26.9086 44.9102ZM24.6628 52.2451C24.6628 52.3841 24.6786 52.5192 24.7084 52.649C24.8409 52.6794 24.9763 52.6947 25.1122 52.6946C26.1043 52.6946 26.9086 51.8903 26.9086 50.8982C26.9086 50.7593 26.8928 50.6242 26.863 50.4944C26.7305 50.464 26.5951 50.4487 26.4592 50.4487C25.4671 50.4487 24.6628 51.2531 24.6628 52.2451Z" fill="#06995F"/>
</svg>
