<svg width="29" height="53" viewBox="0 0 29 53" fill="none" xmlns="http://www.w3.org/2000/svg">
<path d="M4.99473 14.3713C4.99473 15.6941 3.9224 16.7665 2.59952 16.7665C1.27665 16.7665 0.204315 15.6941 0.204315 14.3713C0.204315 13.0484 1.27665 11.976 2.59952 11.976C3.9224 11.976 4.99473 13.0484 4.99473 14.3713ZM2.59952 9.58084C3.59162 9.58084 4.39593 8.77653 4.39593 7.78443C4.39593 6.79234 3.59162 5.98802 2.59952 5.98802C1.60743 5.98802 0.803118 6.79234 0.803118 7.78443C0.803118 8.77653 1.60743 9.58084 2.59952 9.58084ZM2.59952 3.59281C3.59162 3.59281 4.39593 2.7885 4.39593 1.79641C4.39593 0.804311 3.59162 0 2.59952 0C1.60743 0 0.803118 0.804311 0.803118 1.79641C0.803118 2.7885 1.60743 3.59281 2.59952 3.59281ZM26.1122 40.7186C24.7893 40.7186 23.717 39.6462 23.717 38.3234C23.717 37.0005 24.7893 35.9281 26.1122 35.9281C27.4351 35.9281 28.5074 37.0005 28.5074 38.3234C28.5074 39.6462 27.4351 40.7186 26.1122 40.7186ZM24.3158 44.9102C24.3158 45.9023 25.1201 46.7066 26.1122 46.7066C27.1043 46.7066 27.9086 45.9023 27.9086 44.9102C27.9086 43.9181 27.1043 43.1138 26.1122 43.1138C25.1201 43.1138 24.3158 43.9181 24.3158 44.9102ZM24.3158 50.8982C24.3158 51.8903 25.1201 52.6946 26.1122 52.6946C27.1043 52.6946 27.9086 51.8903 27.9086 50.8982C27.9086 49.9061 27.1043 49.1018 26.1122 49.1018C25.1201 49.1018 24.3158 49.9061 24.3158 50.8982Z" fill="#006E66"/>
</svg>
