<svg width="49" height="41" viewBox="0 0 49 41" fill="none" xmlns="http://www.w3.org/2000/svg">
<path d="M15.9551 2.07929V12.9146C15.9551 13.5761 15.4189 14.1122 14.7575 14.1122C14.0961 14.1122 13.5599 13.5761 13.5599 12.9146V3.27689H12.4416C11.7801 3.27689 11.244 2.74073 11.244 2.07929C11.244 1.41785 11.7801 0.881683 12.4416 0.881683H14.7575C15.4189 0.881683 15.9551 1.41785 15.9551 2.07929ZM26.2941 16.8713H23.9782C23.3168 16.8713 22.7806 17.4074 22.7806 18.0689C22.7806 18.7303 23.3168 19.2665 23.9782 19.2665H25.0965V28.9042C25.0965 29.5656 25.6327 30.1018 26.2941 30.1018C26.9556 30.1018 27.4918 29.5656 27.4918 28.9042V18.0689C27.4918 17.4074 26.9556 16.8713 26.2941 16.8713ZM3.81834 16.8713H1.50229C0.840856 16.8713 0.304688 17.4074 0.304688 18.0689C0.304688 18.7303 0.840856 19.2665 1.50229 19.2665H2.62062V28.9042C2.62062 29.5656 3.15678 30.1018 3.81822 30.1018C4.47966 30.1018 5.01583 29.5656 5.01583 28.9042V18.0689C5.01594 17.4074 4.47966 16.8713 3.81834 16.8713ZM14.7575 32.7181H12.4416C11.7801 32.7181 11.244 33.2543 11.244 33.9157C11.244 34.5771 11.7801 35.1133 12.4416 35.1133H13.5599V39.4483C14.3479 39.7158 15.1471 39.9496 15.9551 40.1488V33.9157C15.9551 33.2543 15.4189 32.7181 14.7575 32.7181ZM47.1912 0.881683H44.8752C44.2138 0.881683 43.6776 1.41785 43.6776 2.07929C43.6776 2.74073 44.2138 3.27689 44.8752 3.27689H45.9935V12.9146C45.9935 13.5761 46.5297 14.1122 47.1912 14.1122C47.8526 14.1122 48.3888 13.5761 48.3888 12.9146V2.07929C48.3888 1.41785 47.8526 0.881683 47.1912 0.881683ZM37.3316 0.881683H35.0157C34.3543 0.881683 33.8181 1.41785 33.8181 2.07929C33.8181 2.74073 34.3543 3.27689 35.0157 3.27689H36.134V12.9146C36.134 13.5761 36.6702 14.1122 37.3316 14.1122C37.9931 14.1122 38.5292 13.5761 38.5292 12.9146V2.07929C38.5292 1.41785 37.9931 0.881683 37.3316 0.881683Z" fill="#0AB59E"/>
</svg>
