<svg width="50" height="50" viewBox="0 0 50 50" fill="none" xmlns="http://www.w3.org/2000/svg">
<path d="M35.1543 13.9844C34.8292 13.9988 34.5264 14.0935 34.2598 14.2012C34.01 14.3017 33.0558 14.711 31.5527 15.3555C30.0484 16.0006 28.0565 16.8558 25.9316 17.7696C21.682 19.5971 16.9042 21.6542 14.457 22.7071C14.365 22.7467 14.0439 22.8492 13.7031 23.1153C13.3623 23.3813 13 23.9326 13 24.5469C13 25.0423 13.2361 25.5344 13.5332 25.8282C13.8303 26.122 14.1447 26.2671 14.4141 26.377C15.3912 26.7757 18.4218 28.0159 18.9941 28.2501C19.1955 28.867 20.2925 32.2226 20.5469 33.045C20.7146 33.5877 20.8742 33.9276 21.082 34.1973C21.1859 34.3322 21.3067 34.4504 21.4531 34.543C21.5116 34.58 21.5758 34.6086 21.6406 34.6348L21.6445 34.6368C21.6595 34.6428 21.6723 34.653 21.6875 34.6583C21.7161 34.6683 21.7352 34.6695 21.7734 34.6778C21.9258 34.727 22.0795 34.7579 22.2168 34.7579C22.802 34.7579 23.1602 34.4356 23.1602 34.4356L23.1816 34.42L26.1914 31.8165L29.8418 35.2696C29.8932 35.3423 30.3725 36.0001 31.4297 36.0001C32.0574 36.0001 32.5553 35.6851 32.875 35.3497C33.1947 35.0143 33.3938 34.6619 33.4785 34.2188V34.2169C33.5577 33.7982 36.9219 16.5274 36.9219 16.5274L36.916 16.5508C37.0145 16.1013 37.0403 15.6827 36.9316 15.2696C36.823 14.8565 36.5366 14.461 36.1816 14.2481C35.8267 14.0353 35.4794 13.9701 35.1543 13.9844ZM34.9668 16.0743C34.962 16.1035 34.9704 16.0888 34.9629 16.1231L34.9609 16.1348L34.959 16.1465C34.959 16.1465 31.6365 33.1964 31.5137 33.8458C31.5227 33.7967 31.4816 33.8942 31.4395 33.9532C31.3799 33.9121 31.2578 33.8594 31.2578 33.8594L31.2383 33.838L26.252 29.1212L22.7266 32.168L23.7754 27.9688C23.7754 27.9688 30.3316 21.1822 30.7266 20.7872C31.0446 20.4712 31.1113 20.361 31.1113 20.252C31.1113 20.106 31.0352 20.0001 30.8652 20.0001C30.7122 20.0001 30.5065 20.1488 30.3965 20.2188C28.9634 21.1324 22.6718 24.7992 19.8516 26.4395C19.4034 26.2561 16.2897 24.9815 15.2344 24.5508C15.2424 24.5473 15.2397 24.5486 15.248 24.545C17.6959 23.4918 22.4716 21.4347 26.7207 19.6075C28.8452 18.6939 30.8387 17.838 32.3418 17.1934C33.8218 16.5587 34.8501 16.1219 34.9668 16.0743Z" fill="#212121"/>
<rect x="0.5" y="0.5" width="49" height="49" rx="24.5" stroke="#09A494"/>
</svg>
